<svg width="290" height="272" viewBox="0 0 290 272" fill="none" xmlns="http://www.w3.org/2000/svg">
<path d="M112.745 165.534H22.5078V37.807C22.5086 27.6335 112.747 27.6335 112.746 37.807L112.745 165.534Z" fill="#E0E0E0"/>
<path d="M110.672 165.534H20.4341V37.8074C20.4341 27.634 110.673 27.634 110.672 37.8074V165.534Z" fill="#EBEBEB"/>
<path d="M24.9129 159.122V40.3269C24.9129 39.5095 25.4228 38.7832 26.1924 38.5063C31.2018 36.7043 44.8403 34.6546 65.5537 34.6546C86.2655 34.6546 99.9048 36.7043 104.915 38.5063C105.685 38.7832 106.194 39.5095 106.194 40.3269V159.122C106.194 160.19 105.329 161.055 104.262 161.055H26.8448C25.7781 161.055 24.9129 160.19 24.9129 159.122Z" fill="#FAFAFA"/>
<path d="M43.9908 35.5125L29.9201 161.051H50.47L64.6377 34.6541C56.6507 34.6772 49.7385 35.0124 43.9908 35.5125Z" fill="white"/>
<path d="M70.5645 34.6987L56.3968 161.051H67.7504L81.8733 35.1242C78.4329 34.9152 74.6551 34.7659 70.5645 34.6987Z" fill="white"/>
<path d="M82.9304 32.7265H78.9906V162.713H82.9304V32.7265Z" fill="#EBEBEB"/>
<path d="M51.1912 32.7265H47.2514V162.713H51.1912V32.7265Z" fill="#EBEBEB"/>
<path d="M51.9032 32.7265H51.1911V162.713H51.9032V32.7265Z" fill="#E0E0E0"/>
<path d="M83.6425 32.7265H82.9304V162.713H83.6425V32.7265Z" fill="#E0E0E0"/>
<path d="M107.639 61.3613H22.5429V65.3011H107.639V61.3613Z" fill="#EBEBEB"/>
<path d="M108.385 164.331H16.3226V168.685H108.385V164.331Z" fill="#F5F5F5"/>
<path d="M112.745 164.331H108.385V168.685H112.745V164.331Z" fill="#E0E0E0"/>
<path d="M273.136 165.534H182.898V37.807C182.899 27.6335 273.137 27.6335 273.136 37.807V165.534Z" fill="#E0E0E0"/>
<path d="M271.062 165.534H180.824V37.8074C180.825 27.634 271.063 27.634 271.062 37.8074V165.534Z" fill="#EBEBEB"/>
<path d="M185.303 159.122V40.3269C185.303 39.5095 185.813 38.7832 186.582 38.5063C191.592 36.7043 205.23 34.6546 225.944 34.6546C246.656 34.6546 260.295 36.7043 265.305 38.5063C266.075 38.7832 266.584 39.5095 266.584 40.3269V159.122C266.584 160.19 265.719 161.055 264.652 161.055H187.236C186.168 161.055 185.303 160.19 185.303 159.122Z" fill="#FAFAFA"/>
<path d="M204.382 35.5125L190.311 161.051H210.861L225.029 34.6541C217.041 34.6772 210.129 35.0124 204.382 35.5125Z" fill="white"/>
<path d="M230.955 34.6987L216.788 161.051H228.141L242.264 35.1242C238.823 34.9152 235.046 34.7659 230.955 34.6987Z" fill="white"/>
<path d="M243.32 32.7265H239.381V162.713H243.32V32.7265Z" fill="#EBEBEB"/>
<path d="M211.582 32.7265H207.642V162.713H211.582V32.7265Z" fill="#EBEBEB"/>
<path d="M212.293 32.7265H211.581V162.713H212.293V32.7265Z" fill="#E0E0E0"/>
<path d="M244.033 32.7265H243.32V162.713H244.033V32.7265Z" fill="#E0E0E0"/>
<path d="M268.03 61.3613H182.934V65.3011H268.03V61.3613Z" fill="#EBEBEB"/>
<path d="M268.775 164.331H176.713V168.685H268.775V164.331Z" fill="#F5F5F5"/>
<path d="M273.136 164.331H268.776V168.685H273.136V164.331Z" fill="#E0E0E0"/>
<path d="M22.5071 10.4877H0V16.8489H22.5071V10.4877Z" fill="#F0F0F0"/>
<path d="M33.7607 16.8489H11.2536V23.2102H33.7607V16.8489Z" fill="#E6E6E6"/>
<path d="M173.68 99.4308H151.173V105.792H173.68V99.4308Z" fill="#F5F5F5"/>
<path d="M206.052 186.384H183.545V192.745H206.052V186.384Z" fill="#F5F5F5"/>
<path d="M47.42 188.374H24.9129V194.735H47.42V188.374Z" fill="#E6E6E6"/>
<path d="M114.253 4.12714H91.7459V10.4884H114.253V4.12714Z" fill="#F0F0F0"/>
<path d="M118.892 182.012H96.3853V188.374H118.892V182.012Z" fill="#F5F5F5"/>
<path d="M284.39 178.833H261.882V185.194H284.39V178.833Z" fill="#F5F5F5"/>
<path d="M107.639 188.374H85.1317V194.735H107.639V188.374Z" fill="#F0F0F0"/>
<path d="M199.221 16.8489H176.713V23.2102H199.221V16.8489Z" fill="#F0F0F0"/>
<path d="M276.669 20.105C282.221 20.105 286.722 15.6046 286.722 10.0525C286.722 4.50037 282.22 0 276.669 0H275.452V20.105H276.669Z" fill="#E0E0E0"/>
<path d="M275.452 20.105C281.004 20.105 285.505 15.6044 285.505 10.0525C285.505 4.50066 281.004 0 275.452 0C269.9 0 265.4 4.50066 265.4 10.0525C265.4 15.6044 269.9 20.105 275.452 20.105Z" fill="#EBEBEB"/>
<path opacity="0.6" d="M268.176 9.93663C269.319 10.851 271.665 9.81815 273.415 7.62971C275.165 5.44127 275.657 2.92595 274.514 2.01159C273.37 1.09722 271.025 2.13007 269.275 4.31851C267.524 6.50695 267.032 9.02227 268.176 9.93663Z" fill="#F5F5F5"/>
<path d="M275.452 11.4639C276.232 11.4639 276.864 10.8319 276.864 10.0523C276.864 9.27276 276.232 8.64079 275.452 8.64079C274.673 8.64079 274.041 9.27276 274.041 10.0523C274.041 10.8319 274.673 11.4639 275.452 11.4639Z" fill="#E0E0E0"/>
<path d="M280.777 27.4906H272.951C271.31 27.4906 269.967 26.1478 269.967 24.507C269.967 22.8663 271.31 21.5235 272.951 21.5235H280.777C282.417 21.5235 283.76 22.8663 283.76 24.507C283.76 26.1485 282.417 27.4906 280.777 27.4906Z" fill="#E0E0E0"/>
<path d="M279.365 27.4906H271.539C269.899 27.4906 268.556 26.1478 268.556 24.507C268.556 22.8663 269.899 21.5235 271.539 21.5235H279.365C281.006 21.5235 282.349 22.8663 282.349 24.507C282.349 26.1485 281.006 27.4906 279.365 27.4906Z" fill="#F5F5F5"/>
<path d="M283.094 23.9892L282.846 23.2009C285.261 22.4418 286.608 19.8605 285.849 17.4458L286.637 17.1979C287.533 20.0472 285.943 23.0934 283.094 23.9892Z" fill="#E0E0E0"/>
<path d="M286.624 18.5317C286.205 18.6631 285.755 18.4287 285.624 18.01L285.341 17.1127C285.21 16.694 285.444 16.2438 285.863 16.1125C286.282 15.9811 286.732 16.2162 286.863 16.6342L287.146 17.5315C287.277 17.9495 287.043 18.4004 286.624 18.5317Z" fill="#E0E0E0"/>
<path d="M144.729 272C224.661 272 289.459 268.216 289.459 263.548C289.459 258.88 224.661 255.096 144.729 255.096C64.7975 255.096 0 258.88 0 263.548C0 268.216 64.7975 272 144.729 272Z" fill="#F5F5F5"/>
<path d="M36.244 30.3852C36.097 30.3852 35.9552 30.3023 35.8872 30.1605C35.249 28.8281 36.0201 27.7726 36.836 26.6551C38.0064 25.0525 39.4628 23.058 37.9288 19.1563C35.2065 12.2299 37.3839 8.20576 37.4779 8.03781C37.5847 7.84821 37.8235 7.78029 38.0146 7.88628C38.205 7.99228 38.2737 8.23264 38.1684 8.42298C38.1475 8.46105 36.0895 12.3165 38.6648 18.8674C40.3578 23.1737 38.6909 25.4548 37.4742 27.1209C36.6143 28.2981 36.1851 28.9535 36.5994 29.8194C36.6934 30.0164 36.6106 30.2523 36.4135 30.3464C36.359 30.3725 36.3008 30.3852 36.244 30.3852Z" fill="#407BFF"/>
<path d="M37.8415 9.33874C37.2309 9.33874 36.7337 8.8416 36.7337 8.231C36.7337 7.6204 37.2309 7.12326 37.8415 7.12326C38.4528 7.12326 38.9492 7.6204 38.9492 8.231C38.9492 8.8416 38.4521 9.33874 37.8415 9.33874ZM37.8415 7.91226C37.666 7.91226 37.5235 8.05484 37.5235 8.23025C37.5235 8.40567 37.666 8.54824 37.8415 8.54824C38.0169 8.54824 38.1594 8.40567 38.1594 8.23025C38.1594 8.05484 38.0169 7.91226 37.8415 7.91226Z" fill="#407BFF"/>
<path d="M50.3826 23.4326L50.7603 24.0506L13.772 46.6458L13.395 46.0278L28.3838 28.9929L50.3826 23.4326Z" fill="#263238"/>
<path d="M50.7603 24.0507L35.7715 41.0855L13.772 46.6459L28.7615 29.6103L50.7603 24.0507Z" fill="#407BFF"/>
<path d="M48.0081 37.2323C40.2726 40.6204 33.0164 45.0529 26.4707 50.3893C26.0579 50.7259 25.4592 50.652 25.2002 50.2281L21.2433 43.7511C21.032 43.4055 21.1231 42.9427 21.459 42.6672C28.1218 37.2062 35.5252 32.6841 43.4249 29.2489C43.8235 29.0758 44.2766 29.2064 44.4879 29.552L48.4448 36.029C48.7031 36.4522 48.4956 37.0188 48.0081 37.2323Z" fill="#407BFF"/>
<path opacity="0.3" d="M48.0081 37.2323C40.2726 40.6204 33.0164 45.0529 26.4707 50.3893C26.0579 50.7259 25.4592 50.652 25.2002 50.2281L21.2433 43.7511C21.032 43.4055 21.1231 42.9427 21.459 42.6672C28.1218 37.2062 35.5252 32.6841 43.4249 29.2489C43.8235 29.0758 44.2766 29.2064 44.4879 29.552L48.4448 36.029C48.7031 36.4522 48.4956 37.0188 48.0081 37.2323Z" fill="#263238"/>
<path d="M255.498 102.388C255.329 102.388 255.162 102.317 255.046 102.178C253.663 100.538 254.298 98.765 254.972 96.8891C255.978 94.0824 257.119 90.9011 252.517 86.5261C243.424 77.8806 249.064 69.3994 249.121 69.3151C249.305 69.0456 249.673 68.9769 249.942 69.1613C250.212 69.3449 250.281 69.7129 250.097 69.9832C249.885 70.2959 244.987 77.7351 253.332 85.6684C258.493 90.5749 257.101 94.4549 256.085 97.2885C255.396 99.2091 255.05 100.348 255.95 101.416C256.16 101.666 256.128 102.039 255.879 102.249C255.768 102.343 255.633 102.388 255.498 102.388Z" fill="#407BFF"/>
<path d="M249.635 71.303C248.897 71.303 248.222 70.8066 248.028 70.0594C247.917 69.6302 247.98 69.1831 248.204 68.8009C248.429 68.4187 248.79 68.147 249.219 68.0358C250.106 67.8073 251.013 68.3403 251.242 69.2256C251.472 70.1117 250.938 71.0193 250.053 71.2492C249.912 71.2858 249.773 71.303 249.635 71.303ZM249.636 69.1659C249.596 69.1659 249.555 69.1711 249.516 69.1816C249.393 69.2137 249.289 69.2913 249.225 69.401C249.161 69.5108 249.142 69.6391 249.174 69.7623C249.24 70.0169 249.501 70.1699 249.755 70.1042C250.01 70.0385 250.163 69.7772 250.097 69.5234C250.065 69.4003 249.988 69.2973 249.878 69.2323C249.803 69.1883 249.72 69.1659 249.636 69.1659Z" fill="#407BFF"/>
<path d="M277.192 132.056L276.433 132.637L241.594 87.2377L242.352 86.6555L266.814 103.952L277.192 132.056Z" fill="#263238"/>
<path d="M276.433 132.637L251.971 115.342L241.594 87.2376L266.057 104.534L276.433 132.637Z" fill="#407BFF"/>
<path d="M258.741 130.868C253.211 121.186 246.376 112.28 238.455 104.432C237.956 103.937 237.968 103.141 238.489 102.742L246.439 96.6416C246.863 96.3161 247.484 96.3706 247.892 96.773C255.994 104.756 262.967 113.843 268.582 123.734C268.865 124.233 268.757 124.846 268.333 125.172L260.382 131.273C259.863 131.672 259.091 131.479 258.741 130.868Z" fill="#407BFF"/>
<path opacity="0.3" d="M258.741 130.868C253.211 121.186 246.376 112.28 238.455 104.432C237.956 103.937 237.968 103.141 238.489 102.742L246.439 96.6416C246.863 96.3161 247.484 96.3706 247.892 96.773C255.994 104.756 262.967 113.843 268.582 123.734C268.865 124.233 268.757 124.846 268.333 125.172L260.382 131.273C259.863 131.672 259.091 131.479 258.741 130.868Z" fill="#263238"/>
<path d="M48.5531 116.547C53.3125 118.528 58.3302 119.857 63.4456 120.491C63.7681 120.531 63.9883 120.826 63.9107 121.12L62.7246 125.598C62.6611 125.837 62.4185 125.992 62.1558 125.961C56.9351 125.328 51.8159 123.972 46.9669 121.938C46.7228 121.836 46.5884 121.581 46.6519 121.342L47.838 116.863C47.9156 116.569 48.253 116.422 48.5531 116.547Z" fill="#407BFF"/>
<path d="M43.4078 114.796L43.5213 114.369L69.0978 121.143L68.9851 121.57L55.1458 122.151L43.4078 114.796Z" fill="#263238"/>
<path d="M43.5213 114.369L57.3598 113.788L69.0978 121.143L55.2585 121.724L43.5213 114.369Z" fill="#407BFF"/>
<g opacity="0.4">
<path opacity="0.4" d="M43.5213 114.369L57.3598 113.788L69.0978 121.143L55.2585 121.724L43.5213 114.369Z" fill="#263238"/>
</g>
<path d="M57.0218 117.961C56.9859 117.961 56.9501 117.952 56.9165 117.932C56.8165 117.874 56.7829 117.746 56.8411 117.646C57.0972 117.205 56.8979 116.84 56.494 116.181C55.9215 115.248 55.1377 113.971 56.2163 111.766C57.8653 108.396 56.9337 106.285 56.924 106.264C56.8755 106.159 56.9218 106.035 57.027 105.986C57.1323 105.938 57.2569 105.984 57.3047 106.089C57.3472 106.182 58.3273 108.403 56.5926 111.95C55.6147 113.948 56.3007 115.064 56.8508 115.962C57.2345 116.587 57.5973 117.178 57.2032 117.856C57.1643 117.923 57.0942 117.961 57.0218 117.961Z" fill="#407BFF"/>
<path d="M57.1046 106.763C57.089 106.763 57.0733 106.762 57.0569 106.761C56.9001 106.748 56.7583 106.675 56.656 106.556C56.5545 106.436 56.5052 106.284 56.5179 106.127C56.5306 105.97 56.603 105.828 56.7232 105.726C56.8426 105.624 56.9956 105.576 57.1517 105.588C57.3084 105.601 57.4502 105.673 57.5525 105.793C57.654 105.913 57.7033 106.065 57.6906 106.222C57.666 106.529 57.4077 106.763 57.1046 106.763ZM57.1046 106.007C57.0643 106.007 57.0263 106.021 56.9956 106.047C56.9613 106.076 56.9404 106.117 56.9367 106.162C56.9292 106.255 56.9986 106.337 57.0912 106.344C57.186 106.352 57.2659 106.282 57.2733 106.189C57.2808 106.096 57.2114 106.015 57.1188 106.008C57.1136 106.007 57.1091 106.007 57.1046 106.007Z" fill="#407BFF"/>
<path d="M143.814 43.283C138.417 41.793 135.389 50.284 133.941 57.3932C132.493 64.5024 126.173 65.5557 126.173 65.5557C126.173 65.5557 145.184 77.9222 159.349 71.0847C170.758 65.5773 167.116 52.5517 161.981 46.5524C156.847 40.5532 147.105 38.125 143.814 43.283Z" fill="#263238"/>
<path d="M154.326 256.895L147.879 257.525L141.171 242.18L147.618 241.55L154.326 256.895Z" fill="#FF8B7B"/>
<path d="M195.214 237.974L190.009 242.098L180.555 229.775L185.761 225.65L195.214 237.974Z" fill="#FF8B7B"/>
<path d="M187.964 239.738L192.139 233.509C192.29 233.282 192.571 233.204 192.814 233.321L198.217 235.914C198.778 236.183 198.967 236.948 198.607 237.464C197.114 239.61 196.285 240.572 194.449 243.31C193.32 244.995 191.068 248.889 189.508 251.215C187.983 253.491 185.564 252.124 186.006 251.015C187.984 246.045 187.931 243.18 187.683 240.893C187.638 240.481 187.741 240.07 187.964 239.738Z" fill="#263238"/>
<path d="M147.023 255.533H154.941C155.229 255.533 155.489 255.733 155.566 256.015L157.288 262.279C157.466 262.928 156.988 263.526 156.322 263.532C153.532 263.557 152.209 263.545 148.727 263.545C146.585 263.545 141.043 263.545 138.085 263.545C135.192 263.545 134.586 260.62 135.784 260.355C141.152 259.168 144.246 257.529 145.902 255.967C146.201 255.685 146.601 255.533 147.023 255.533Z" fill="#263238"/>
<path opacity="0.2" d="M141.174 242.184L144.631 250.094H151.356L147.623 241.554L141.174 242.184Z" fill="black"/>
<path opacity="0.2" d="M185.764 225.652L180.556 229.779L185.432 236.129L190.64 232.002L185.764 225.652Z" fill="black"/>
<path d="M135.007 119.553C135.007 119.553 122.516 159.065 126.208 187.971C128.68 207.331 141.722 247.801 141.722 247.801L153.24 247.505C153.24 247.505 143.91 206.402 142.945 190.353C141.295 162.902 154.856 119.506 154.856 119.506L135.007 119.553Z" fill="#407BFF"/>
<path d="M140.097 248.398L154.326 248.035L153.503 243.663H139.075L140.097 248.398Z" fill="#263238"/>
<path d="M140.926 119.619C140.926 119.619 142.677 162.782 152.295 187.075C160.063 206.696 182.764 235.607 182.764 235.607L189.697 229.57C189.697 229.57 175.291 199.013 169.392 185.917C154.929 153.805 170.825 131.565 162.112 119.488L140.926 119.619Z" fill="#407BFF"/>
<path d="M182.044 236.432L190.953 229.098L188.534 225.151L178.78 233.268L182.044 236.432Z" fill="#263238"/>
<path d="M186.397 243.143C186.204 243.127 186.017 243.038 185.837 242.877C185.646 242.706 185.631 242.52 185.652 242.393C185.79 241.567 187.993 240.616 188.244 240.511C188.292 240.491 188.348 240.501 188.386 240.537C188.424 240.574 188.437 240.629 188.418 240.678C188.108 241.505 187.468 242.922 186.657 243.121C186.569 243.143 186.482 243.151 186.397 243.143ZM188.056 240.882C187.298 241.231 185.996 241.93 185.911 242.437C185.901 242.494 185.901 242.583 186.012 242.682C186.205 242.854 186.395 242.915 186.594 242.866C187.055 242.753 187.592 242.019 188.056 240.882Z" fill="#407BFF"/>
<path d="M186.243 241.061C185.846 241.028 185.502 240.932 185.317 240.745C185.218 240.646 185.079 240.429 185.252 240.088C185.363 239.869 185.542 239.727 185.783 239.663C186.709 239.42 188.301 240.478 188.368 240.522C188.407 240.549 188.428 240.593 188.425 240.64C188.422 240.686 188.395 240.728 188.353 240.749C187.93 240.962 186.992 241.124 186.243 241.061ZM186.214 239.895C186.082 239.884 185.959 239.89 185.849 239.919C185.681 239.962 185.563 240.057 185.486 240.207C185.386 240.405 185.443 240.499 185.504 240.56C185.866 240.923 187.267 240.852 188.007 240.608C187.63 240.382 186.835 239.947 186.214 239.895Z" fill="#407BFF"/>
<path d="M143.51 256.814C142.904 256.814 142.341 256.72 141.982 256.449C141.74 256.266 141.608 256.017 141.59 255.708C141.578 255.485 141.685 255.364 141.778 255.301C142.498 254.811 145.373 256.138 145.699 256.291C145.75 256.315 145.78 256.369 145.774 256.425C145.768 256.48 145.727 256.527 145.671 256.539C145.098 256.667 144.27 256.814 143.51 256.814ZM142.246 255.449C142.105 255.449 141.996 255.471 141.925 255.519C141.888 255.544 141.847 255.586 141.853 255.694C141.867 255.924 141.961 256.103 142.141 256.24C142.79 256.73 144.367 256.524 145.22 256.364C144.236 255.93 142.908 255.449 142.246 255.449Z" fill="#407BFF"/>
<path d="M145.643 256.543C145.627 256.543 145.609 256.539 145.593 256.533C144.729 256.179 142.917 254.725 143.015 254.004C143.036 253.85 143.142 253.656 143.533 253.609C145.082 253.43 145.744 256.262 145.771 256.383C145.782 256.43 145.765 256.48 145.727 256.512C145.703 256.532 145.674 256.543 145.643 256.543ZM143.674 253.863C143.638 253.863 143.601 253.865 143.564 253.87C143.294 253.902 143.28 254.005 143.275 254.039C143.213 254.5 144.507 255.682 145.443 256.172C145.25 255.512 144.668 253.863 143.674 253.863Z" fill="#407BFF"/>
<path d="M94.5915 55.79L92.2954 50.7596L107.256 44.5469L121.751 37.316L124.047 42.3463L109.087 48.5583L94.5915 55.79Z" fill="#407BFF"/>
<path opacity="0.5" d="M94.5915 55.79L92.2954 50.7596L107.256 44.5469L121.751 37.316L124.047 42.3463L109.087 48.5583L94.5915 55.79Z" fill="#FAFAFA"/>
<path d="M111.937 48.2148L111.762 48.2686C111.319 48.4037 110.845 48.1521 110.709 47.7087L109.453 43.5988C109.318 43.1554 109.57 42.6814 110.013 42.5455L110.188 42.4918C110.631 42.3559 111.105 42.6082 111.241 43.0516L112.497 47.1616C112.633 47.6057 112.381 48.0797 111.937 48.2148Z" fill="#407BFF"/>
<path d="M107.236 50.3525L107.087 50.4585C106.709 50.7273 106.18 50.6377 105.912 50.2592L103.423 46.7554C103.154 46.3769 103.244 45.8484 103.622 45.5797L103.771 45.4737C104.15 45.205 104.678 45.2946 104.947 45.673L107.436 49.1769C107.704 49.5546 107.615 50.0838 107.236 50.3525Z" fill="#407BFF"/>
<path d="M110.018 53.2825L111.599 47.5355L104.743 48.8172C104.743 48.8172 104.831 52.8593 108.088 54.9254L110.018 53.2825Z" fill="#FF8B7B"/>
<path d="M109.283 42.1439L104.37 44.0451L104.743 48.818L111.6 47.5363L109.283 42.1439Z" fill="#FF8B7B"/>
<path d="M104.275 66.2963C104.451 60.1806 106.952 51.6643 106.952 51.6643L110.419 51.2313C110.419 51.2313 109.497 58.1174 110.068 64.3055L104.275 66.2963Z" fill="#FF8B7B"/>
<path d="M137.793 92.6162C137.363 92.7386 137.104 92.7953 136.771 92.8767L135.838 93.0879L134.004 93.4873C132.784 93.7381 131.567 93.9822 130.332 94.1807C127.866 94.6032 125.352 94.9197 122.71 95.063C120.055 95.1496 117.282 95.1758 114.149 94.4442C112.588 94.0703 110.906 93.5216 109.215 92.5214C108.795 92.2818 108.373 91.9742 107.962 91.6883L107.806 91.5756L107.591 91.4017L107.17 91.0426C106.921 90.809 106.668 90.5604 106.453 90.3223C105.591 89.3609 105.037 88.4502 104.598 87.6119C103.739 85.9376 103.276 84.4873 102.906 83.1041C102.541 81.7232 102.299 80.4161 102.093 79.1382C101.658 76.5905 101.465 74.1466 101.266 71.7341C101.098 69.3223 100.974 66.9426 100.898 64.5681L100.782 61.0061L100.736 59.2153C100.718 58.6002 100.697 58.0434 100.697 57.3477L115.646 58.6764C115.55 59.1033 115.448 59.6699 115.356 60.1797L115.111 61.7637C114.957 62.8244 114.839 63.8918 114.722 64.9563C114.52 67.0874 114.38 69.2171 114.357 71.3094C114.306 73.4002 114.417 75.4604 114.603 77.3773C114.712 78.3305 114.868 79.2442 115.051 80.0496C115.23 80.8498 115.466 81.5582 115.635 81.8919C115.714 82.0523 115.771 82.0994 115.661 81.9777C115.634 81.9501 115.587 81.8941 115.538 81.8583C115.507 81.8269 115.474 81.7978 115.44 81.7709L115.386 81.7329L115.404 81.7403C115.464 81.7642 115.486 81.8068 115.558 81.8426C115.808 81.9919 116.278 82.2001 116.91 82.33C118.185 82.5868 119.972 82.6435 121.804 82.4338C123.657 82.2457 125.603 81.8389 127.543 81.3141C128.51 81.0357 129.482 80.7408 130.436 80.3982C130.913 80.2273 131.385 80.0496 131.851 79.8667L132.533 79.5779C132.736 79.4868 133.013 79.3703 133.116 79.3084L137.793 92.6162Z" fill="#263238"/>
<g opacity="0.2">
<path opacity="0.2" d="M131.02 210.901C132.073 214.992 133.192 219.112 134.297 223.046C137.552 222.143 142.18 220.807 147.315 219.127C146.442 214.589 145.598 209.953 144.882 205.609L131.02 210.901Z" fill="black"/>
<path opacity="0.2" d="M173.419 194.726L158.811 200.294C161.043 204.236 163.507 208.222 165.977 212.021C170.755 209.842 175.069 207.483 178.189 205.005C176.554 201.489 174.919 197.965 173.419 194.726Z" fill="black"/>
</g>
<path d="M130.872 82.7616C131.307 93.0052 117.995 135.133 124.198 221.145C130.43 222.549 175.278 203.591 180.556 198.193C180.106 187.883 161.192 121.047 165.863 83.2453C166.159 80.8462 164.793 78.5807 162.402 78.2276C160.372 77.9283 157.854 77.629 155.306 77.5125C150.744 77.3035 147.007 77.1669 142.998 77.5424C139.924 77.8305 136.551 78.4046 134.264 78.8345C132.354 79.1943 130.789 80.8193 130.872 82.7616Z" fill="#263238"/>
<path d="M154.053 63.656C153.286 67.6182 152.528 74.8767 155.306 77.5125C155.306 77.5125 151.358 83.6856 144.625 86.7282C139.265 82.1927 142.998 77.5423 142.998 77.5423C147.411 76.4771 147.29 73.2009 146.513 70.1255L154.053 63.656Z" fill="#FF8B7B"/>
<path d="M144.341 87.6494L145.174 82.8676L154.258 75.5188L157.374 77.3065C157.374 77.3065 149.212 87.9114 144.341 87.6494Z" fill="#E6E6E6"/>
<path d="M144.341 87.6494L145.174 82.8676L143.979 76.7787L141.086 77.3065C141.086 77.3065 139.47 87.9114 144.341 87.6494Z" fill="#E6E6E6"/>
<path d="M145.174 82.8675C145.174 82.8675 149.08 86.7185 149.277 90.2067C151.91 87.6396 158.23 79.4114 158.361 77.0415C156.979 75.8897 154.181 75.1917 154.181 75.1917L145.174 82.8675Z" fill="white"/>
<path d="M145.174 82.8675C145.174 82.8675 141.382 85.8824 141.184 89.3706C138.552 86.8035 139.787 79.5323 140.116 77.5244C141.499 76.3726 144.252 75.9993 144.252 75.9993L145.174 82.8675Z" fill="white"/>
<path opacity="0.2" d="M150.979 66.2963L146.516 70.1226C146.702 70.8504 146.847 71.5887 146.901 72.3067C148.587 72.0589 151.126 70.5414 151.301 68.7745C151.388 67.893 151.123 66.7061 150.979 66.2963Z" fill="black"/>
<path d="M158.095 57.7051C155.891 63.9514 155.091 66.6424 150.949 68.9892C144.718 72.5192 137.528 68.4458 137.822 61.6665C138.087 55.565 141.648 46.3754 148.593 45.6207C155.435 44.8772 160.3 51.4587 158.095 57.7051Z" fill="#FF8B7B"/>
<path d="M155.487 50.4377C151.561 51.8179 151.904 59.6534 155.802 62.3742C159.7 65.0951 164.351 47.322 155.487 50.4377Z" fill="#263238"/>
<path d="M143.992 47.6086C147.945 51.0751 153.629 52.4224 155.619 51.4162C157.067 52.5434 161.894 54.826 159.02 49.3844C156.145 43.9427 151.053 43.2411 147.741 43.2843C144.429 43.3276 140.616 44.6481 143.992 47.6086Z" fill="#263238"/>
<path d="M158.118 63.585C157.304 64.8383 156.047 65.6034 154.918 65.8453C153.22 66.2095 152.591 64.5643 153.248 62.9326C153.839 61.4636 155.436 59.5049 157.051 59.8751C158.643 60.2409 159.049 62.1525 158.118 63.585Z" fill="#FF8B7B"/>
<path d="M147.061 57.4947C147.399 57.5913 147.793 57.2499 147.941 56.7321C148.089 56.2144 147.934 55.7164 147.596 55.6198C147.257 55.5232 146.863 55.8646 146.715 56.3823C146.567 56.9 146.722 57.3981 147.061 57.4947Z" fill="#263238"/>
<path d="M141.214 55.818C141.553 55.9146 141.947 55.5732 142.095 55.0555C142.243 54.5378 142.088 54.0398 141.749 53.9432C141.411 53.8466 141.017 54.1879 140.869 54.7057C140.721 55.2234 140.876 55.7214 141.214 55.818Z" fill="#263238"/>
<path d="M141.89 54.0193L140.748 53.3064C140.748 53.3064 141.11 54.4597 141.89 54.0193Z" fill="#263238"/>
<path d="M143.386 56.3915C143.386 56.3915 141.872 58.3696 140.598 59.1691C141.1 60.0021 142.345 60.0417 142.345 60.0417L143.386 56.3915Z" fill="#FF5652"/>
<path d="M144.567 62.7549C144.261 62.7288 143.934 62.6721 143.592 62.5743C143.522 62.5541 143.482 62.4817 143.502 62.4115C143.522 62.3414 143.596 62.2996 143.665 62.3212C145.947 62.9729 147.476 61.68 147.49 61.6666C147.546 61.6196 147.629 61.6248 147.676 61.68C147.723 61.7345 147.717 61.8181 147.662 61.8651C147.605 61.9151 146.431 62.9117 144.567 62.7549Z" fill="#263238"/>
<path d="M151.144 53.6886C151.056 53.6812 150.973 53.6289 150.931 53.5431C150.298 52.2644 149.145 52.1047 149.095 52.098C148.952 52.08 148.85 51.9487 148.867 51.8053C148.885 51.662 149.013 51.5605 149.158 51.5762C149.218 51.5829 150.638 51.7673 151.401 53.3094C151.465 53.4401 151.412 53.5968 151.283 53.6618C151.239 53.6842 151.19 53.6924 151.144 53.6886Z" fill="#263238"/>
<path d="M140.05 51.7888C139.958 51.7814 139.873 51.7254 139.832 51.6351C139.772 51.503 139.83 51.3469 139.963 51.2872C141.53 50.5774 142.746 51.3328 142.797 51.3656C142.918 51.4432 142.954 51.6052 142.877 51.7276C142.801 51.8493 142.639 51.8866 142.515 51.8097C142.474 51.7829 141.48 51.1775 140.18 51.7665C140.138 51.7851 140.093 51.7926 140.05 51.7888Z" fill="#263238"/>
<path d="M191.017 81.5628L191.77 75.6501L197.604 79.4727C197.604 79.4727 195.966 83.1699 192.164 83.8223L191.017 81.5628Z" fill="#FF8B7B"/>
<path d="M195.984 71.5654L199.786 75.211L197.604 79.4725L191.77 75.65L195.984 71.5654Z" fill="#FF8B7B"/>
<path d="M191.307 95.7841C193.499 90.0722 194.469 81.2491 194.469 81.2491L191.436 79.5151C191.436 79.5151 189.636 86.2258 186.727 91.7167L191.307 95.7841Z" fill="#FF8B7B"/>
<path d="M165.423 80.5559C165.816 81.3957 166.324 82.3929 166.818 83.3014C167.313 84.2322 167.841 85.1488 168.372 86.0603C169.441 87.8794 170.566 89.6559 171.744 91.3579C172.925 93.0545 174.144 94.6938 175.421 96.1613C176.055 96.8906 176.694 97.584 177.325 98.2133C177.956 98.8246 178.593 99.3584 179.133 99.745C179.269 99.8443 179.401 99.9406 179.51 100L179.681 100.11C179.729 100.143 179.69 100.114 179.675 100.107C179.658 100.097 179.638 100.088 179.618 100.081C179.452 100.001 179.084 99.8824 178.689 99.8674C178.295 99.8518 177.938 99.9249 177.773 99.9891C177.606 100.045 177.602 100.062 177.68 99.9958C177.844 99.8652 178.293 99.4517 178.704 98.8635C179.131 98.2805 179.58 97.5669 180.01 96.7883C180.854 95.214 181.633 93.4084 182.284 91.5266C182.622 90.5898 182.904 89.6179 183.185 88.6505L183.559 87.1897C183.619 86.9478 183.667 86.703 183.717 86.4648C183.762 86.2409 183.823 85.9573 183.837 85.8184L198.195 90.1874C198.044 90.5793 197.934 90.8241 197.805 91.1272L197.429 91.9804L196.678 93.6569C196.186 94.7721 195.651 95.8679 195.12 96.9757C194.032 99.1814 192.884 101.392 191.452 103.635C190.744 104.763 189.957 105.902 189.002 107.06C188.032 108.208 186.941 109.427 185.305 110.603C184.483 111.185 183.507 111.761 182.299 112.207C181.092 112.653 179.621 112.927 178.118 112.863C176.611 112.809 175.15 112.388 173.985 111.821L173.558 111.604C173.42 111.532 173.254 111.444 173.187 111.4L172.647 111.074C172.276 110.854 171.953 110.631 171.637 110.408C169.115 108.604 167.331 106.774 165.606 104.936C163.926 103.085 162.383 101.237 160.921 99.3636C159.457 97.4915 158.059 95.6097 156.69 93.7137L154.659 90.854L153.652 89.4074C153.306 88.9117 152.99 88.4616 152.614 87.8906L165.423 80.5559Z" fill="#263238"/>
<path d="M147.741 55.6892L146.6 54.9763C146.6 54.9763 146.96 56.1296 147.741 55.6892Z" fill="#263238"/>
<path d="M174.843 45.7494L174.725 46.2204L132.684 35.6752L132.802 35.2035L154.921 36.1L174.843 45.7494Z" fill="#263238"/>
<path d="M174.725 46.2204L152.607 45.3246L132.684 35.6752L154.802 36.571L174.725 46.2204Z" fill="#407BFF"/>
<path d="M164.136 51.2282C156.244 48.2946 147.997 46.2262 139.656 45.0878C139.13 45.0162 138.746 44.6064 138.844 44.216L140.341 38.2466C140.421 37.9278 140.799 37.7323 141.228 37.7897C149.738 38.9326 158.153 41.0428 166.194 44.0525C166.6 44.204 166.841 44.5556 166.761 44.8736L165.264 50.843C165.165 51.2326 164.634 51.4133 164.136 51.2282Z" fill="#407BFF"/>
<path opacity="0.3" d="M164.136 51.2282C156.244 48.2946 147.997 46.2262 139.656 45.0878C139.13 45.0162 138.746 44.6064 138.844 44.216L140.341 38.2466C140.421 37.9278 140.799 37.7323 141.228 37.7897C149.738 38.9326 158.153 41.0428 166.194 44.0525C166.6 44.204 166.841 44.5556 166.761 44.8736L165.264 50.843C165.165 51.2326 164.634 51.4133 164.136 51.2282Z" fill="#263238"/>
<path d="M167.873 68.4191C167.783 68.4191 167.692 68.3885 167.618 68.325C167.451 68.1839 167.431 67.9346 167.572 67.7682C171.229 63.4626 169.198 61.5129 166.388 58.8137C164.769 57.2596 162.935 55.4979 162.007 53.0025C159.451 46.1322 167.27 41.593 167.349 41.5482C167.539 41.4407 167.78 41.5064 167.887 41.696C167.995 41.8856 167.929 42.1267 167.74 42.2342C167.439 42.4051 160.426 46.4882 162.747 52.7263C163.613 55.053 165.378 56.7475 166.935 58.2434C169.7 60.8985 172.312 63.4074 168.174 68.2787C168.096 68.372 167.985 68.4191 167.873 68.4191Z" fill="#407BFF"/>
<path d="M167.873 69.1322C167.262 69.1322 166.766 68.6351 166.766 68.0245C166.766 67.4131 167.263 66.9167 167.873 66.9167C168.484 66.9167 168.981 67.4139 168.981 68.0245C168.981 68.6358 168.484 69.1322 167.873 69.1322ZM167.873 67.7065C167.698 67.7065 167.555 67.849 167.555 68.0245C167.555 68.1999 167.698 68.3425 167.873 68.3425C168.049 68.3425 168.191 68.1999 168.191 68.0245C168.191 67.849 168.049 67.7065 167.873 67.7065Z" fill="#407BFF"/>
</svg>
